<svg id="Layer_1" data-name="Layer 1" xmlns="http://www.w3.org/2000/svg" xmlns:xlink="http://www.w3.org/1999/xlink" viewBox="0 0 768 768"><defs><style>.cls-1{fill:url(#linear-gradient);}.cls-2{fill:url(#linear-gradient-2);}.cls-3{fill:url(#linear-gradient-3);}.cls-4{fill:url(#linear-gradient-4);}.cls-5{fill:url(#linear-gradient-5);}.cls-6{fill:url(#linear-gradient-6);}.cls-7{fill:url(#linear-gradient-7);}.cls-8{fill:url(#linear-gradient-8);}.cls-9{fill:url(#linear-gradient-9);}.cls-10{fill:url(#linear-gradient-10);}.cls-11{fill:url(#linear-gradient-11);}.cls-12{fill:url(#linear-gradient-12);}.cls-13{fill:url(#linear-gradient-13);}.cls-14{fill:url(#linear-gradient-14);}.cls-15{fill:url(#linear-gradient-15);}.cls-16{fill:url(#linear-gradient-16);}.cls-17{fill:url(#linear-gradient-17);}.cls-18{fill:url(#linear-gradient-18);}.cls-19{fill:url(#linear-gradient-19);}.cls-20{fill:url(#linear-gradient-20);}.cls-21{fill:url(#linear-gradient-21);}.cls-22{fill:url(#linear-gradient-22);}.cls-23{fill:#fff;}</style><linearGradient id="linear-gradient" x1="112.47" y1="112.47" x2="655.53" y2="655.53" gradientUnits="userSpaceOnUse"><stop offset="0" stop-color="#fcee21"/><stop offset="0.28" stop-color="#fcdc29"/><stop offset="1" stop-color="#fbb03b"/></linearGradient><linearGradient id="linear-gradient-2" x1="459.24" y1="319.5" x2="459.24" y2="391.18" gradientUnits="userSpaceOnUse"><stop offset="0" stop-color="#29abe2"/><stop offset="0.26" stop-color="#22a2dc"/><stop offset="0.68" stop-color="#1088cb"/><stop offset="1" stop-color="#0071bc"/></linearGradient><linearGradient id="linear-gradient-3" x1="327.55" y1="386.11" x2="327.55" y2="465.88" xlink:href="#linear-gradient-2"/><linearGradient id="linear-gradient-4" x1="375.83" y1="141.02" x2="402.78" y2="332.18" gradientUnits="userSpaceOnUse"><stop offset="0" stop-color="#42210b"/><stop offset="1" stop-color="#603813"/></linearGradient><linearGradient id="linear-gradient-5" x1="313.97" y1="149.74" x2="340.92" y2="340.9" xlink:href="#linear-gradient-4"/><linearGradient id="linear-gradient-6" x1="330.41" y1="147.42" x2="357.36" y2="338.59" xlink:href="#linear-gradient-4"/><linearGradient id="linear-gradient-7" x1="418.09" y1="612.92" x2="418.09" y2="658.42" xlink:href="#linear-gradient-2"/><linearGradient id="linear-gradient-8" x1="344.14" y1="551.89" x2="344.14" y2="603.44" xlink:href="#linear-gradient-2"/><linearGradient id="linear-gradient-9" x1="424.28" y1="304.8" x2="475.93" y2="638.85" xlink:href="#linear-gradient-2"/><linearGradient id="linear-gradient-10" x1="305.09" y1="323.23" x2="356.74" y2="657.28" xlink:href="#linear-gradient-2"/><linearGradient id="linear-gradient-11" x1="302.21" y1="323.67" x2="353.87" y2="657.72" xlink:href="#linear-gradient-2"/><linearGradient id="linear-gradient-12" x1="367.04" y1="313.65" x2="418.69" y2="647.7" xlink:href="#linear-gradient-2"/><linearGradient id="linear-gradient-13" x1="347.26" y1="316.71" x2="398.91" y2="650.76" xlink:href="#linear-gradient-2"/><linearGradient id="linear-gradient-14" x1="385.47" y1="310.8" x2="437.13" y2="644.85" xlink:href="#linear-gradient-2"/><linearGradient id="linear-gradient-15" x1="433.19" y1="475.26" x2="433.19" y2="554.2" xlink:href="#linear-gradient-2"/><linearGradient id="linear-gradient-16" x1="126.18" y1="162.78" x2="357.19" y2="162.78" gradientUnits="userSpaceOnUse"><stop offset="0" stop-color="#599146"/><stop offset="0.3" stop-color="#6da44b"/><stop offset="1" stop-color="#99cd55"/></linearGradient><linearGradient id="linear-gradient-17" x1="233.1" y1="148.25" x2="355.63" y2="148.25" xlink:href="#linear-gradient-16"/><linearGradient id="linear-gradient-18" x1="41.33" y1="220.94" x2="361.95" y2="220.94" xlink:href="#linear-gradient-16"/><linearGradient id="linear-gradient-19" x1="410.53" y1="169.73" x2="641.53" y2="169.73" xlink:href="#linear-gradient-16"/><linearGradient id="linear-gradient-20" x1="412.08" y1="155.2" x2="534.61" y2="155.2" xlink:href="#linear-gradient-16"/><linearGradient id="linear-gradient-21" x1="439.28" y1="227.88" x2="726.39" y2="227.88" xlink:href="#linear-gradient-16"/><linearGradient id="linear-gradient-22" x1="407.89" y1="235.08" x2="572.13" y2="235.08" gradientUnits="userSpaceOnUse"><stop offset="0" stop-color="#1b1464"/><stop offset="0.04" stop-color="#1c1566"/><stop offset="1" stop-color="#2e3192"/></linearGradient></defs><circle class="cls-1" cx="384" cy="384" r="384"/><path d="M450.29,577.56H425.91v.82c0,17.47-92.65,24-92.65,52.41,0,14.63,30.07,27.63,30.07,27.63s-14.63-10.15-14.63-22.34C349.1,608.86,446.62,615,450.29,577.56Z" transform="translate(0.14)"/><path d="M445,432.92C430.78,452,303.2,461,303.2,510.53a7.84,7.84,0,0,0,.41,3.25h32.5a5.1,5.1,0,0,1-.41-2.44c0-15.85,32.92-25.6,49.17-30.07,15.44-4.48,89-18.29,95.08-48.76l-34.95.41Z" transform="translate(0.14)"/><path class="cls-2" d="M455.56,320c-11.78,1.22-28.85,4.47-39.41,26.41,0,0,16.25,18.69,51.61,0,0,0,16.66-4.88,16.66,4.06,0,12.73-37,19.62-78.8,27.48l.66.14c15.84,3.54,31.81,7.69,45.41,13.13,33.89-8.69,61.17-19.86,61.17-37.1C512.85,321.58,472.22,317.93,455.56,320Z" transform="translate(0.14)"/><path class="cls-3" d="M331.14,465.88a249.52,249.52,0,0,1,35-13.71l0-1.82c-24.28-6.91-43.4-12.82-43.4-20.68,0-8.2,17.75-14.19,42.39-19.86l-.59-23.7c-40.44,9-75.52,21-75.52,42.34C289,445.24,309.1,457.39,331.14,465.88Z" transform="translate(0.14)"/><path class="cls-4" d="M390.55,111a36.57,36.57,0,0,0-22.17,68.9l6.23,269.66c6.7-2,13.38-3.94,19.84-5.77l6.08-263.9a36.56,36.56,0,0,0-10-68.89Z" transform="translate(0.14)"/><path class="cls-5" d="M380.18,687.11h8.54l1.32-65.5c-3.85,1-7.59,2-11.1,3Z" transform="translate(0.14)"/><path class="cls-6" d="M387.12,489.5c-4.22,1.16-8,2.3-11.45,3.4L378.12,592l7.31-2.28c1.72-.53,3.55-1.1,5.46-1.71l2.47-100.11c-2.53.63-4.69,1.18-6.13,1.59Z" transform="translate(0.14)"/><path class="cls-7" d="M420.81,612.92c-6.56,2.24-13.46,4.15-20.28,5.94,11.6,4.18,19.68,9.3,19.68,17.22,0,11.78-14.63,22.34-14.63,22.34s30.08-13,30.08-27.63C435.66,623.59,429.7,617.82,420.81,612.92Z" transform="translate(0.14)"/><path class="cls-8" d="M347.72,603.44a179.7,179.7,0,0,1,21.94-8.71v-.27c-15-4.89-26.64-9.74-26.64-16.08,0-5.4,10.75-10,25.88-14.8l0-.53-2.7-.82c-10.14-3.09-20.51-6.44-30.11-10.34-10.47,6.08-17.43,13.56-17.43,23.25C318.63,589.2,331.32,597.44,347.72,603.44Z" transform="translate(0.14)"/><path class="cls-9" d="M404.41,386.39l-.58,23.52c24.43,5.64,42,11.61,42,19.76a6.53,6.53,0,0,1-1.22,3.65h34.54a9.54,9.54,0,0,0,.81-4.47C480,407.51,444.86,395.42,404.41,386.39Z" transform="translate(0.14)"/><path class="cls-10" d="M368.06,530c-16.41-4.77-29.44-9.48-31.95-15.83h-32.5c3.34,19,34.81,30.67,65.05,39.87Z" transform="translate(0.14)"/><path class="cls-11" d="M362.05,377.91c-41.28-7.8-77.55-14.65-77.55-27.08,0-8.94,16.66-4.06,16.66-4.06,35.35,18.69,51.61,0,51.61,0-11-22.35-27.63-25.19-39.82-26.82-16.66-2-57.29,1.62-57.29,34.13,0,17.19,27.13,28.36,60.91,37C330.14,385.63,346.15,381.46,362.05,377.91Z" transform="translate(0.14)"/><path class="cls-12" d="M445,432.92C430.78,452,303.2,461,303.2,510.53a7.84,7.84,0,0,0,.41,3.25h32.5a5.1,5.1,0,0,1-.41-2.44c0-15.85,32.92-25.6,49.17-30.07,15.44-4.48,89-18.29,95.08-48.76l-34.95.41Z" transform="translate(0.14)"/><path class="cls-13" d="M450.29,577.56H425.91v.82c0,17.47-92.65,24-92.65,52.41,0,14.63,30.07,27.63,30.07,27.63s-14.63-10.15-14.63-22.34C349.1,608.86,446.62,615,450.29,577.56Z" transform="translate(0.14)"/><path class="cls-14" d="M432.77,552.13c-9.56,3.85-19.9,7.18-30,10.25l-2.69.82v.23c14.74,4.65,25.43,9.06,26.28,14.15h24.38c-.41-.81,0-1.62,0-2C450.69,565.76,443.52,558.24,432.77,552.13Z" transform="translate(0.14)"/><path class="cls-15" d="M437.25,475.26A366,366,0,0,1,402,485.75l0,.88c15.34,5.4,31.69,13.54,31.69,24.71,0,7.58-14.27,12.85-32.75,18.21l-.61,24.65c32.14-9.74,65.87-22.22,65.87-43.27C466.13,495.71,454.21,484.3,437.25,475.26Z" transform="translate(0.14)"/><path class="cls-16" d="M195.23,159.64c15.82-1.32,30.76-2.57,44.43-2.57a138.57,138.57,0,0,1,24.4,1.85c24.73,4.43,49.42,21.65,73.38,51.18a283.52,283.52,0,0,1,19.75,27.72c-7.56-23.4-24.67-64.25-55.17-78.57-43.72-20.53-136.9-11.43-175.84-71.51a409.29,409.29,0,0,0,29.75,74.57C169.19,161.81,182.37,160.71,195.23,159.64Z" transform="translate(0.14)"/><path class="cls-17" d="M247.81,138.91c21.5,3.87,41.8,7.53,56.89,14.62,24.76,11.62,41.08,39,50.93,62.08C354,198.75,349.18,178,336,165.78c-25-22.95-89.3-36.46-102.74-84.89A287.57,287.57,0,0,0,237.43,137Z" transform="translate(0.14)"/><path class="cls-18" d="M147,208.51s114.47,52,213.21,47c0,0-41.27-80.37-97.21-90.38s-159.08,28.7-221.62-27.73c0,0,142.43,248.83,312.51,139.13,2.62-1.68,7.2-5.75,8.11-9.34C362,267.2,277.17,282.88,147,208.51Z" transform="translate(0.14)"/><path class="cls-19" d="M503.66,165.87A138.37,138.37,0,0,1,528.05,164c13.67,0,28.61,1.24,44.43,2.57,12.86,1.07,26,2.17,39.3,2.67a408.72,408.72,0,0,0,29.75-74.57c-38.93,60.07-132.11,51-175.83,71.5-30.51,14.32-47.61,55.18-55.17,78.58a280.14,280.14,0,0,1,19.75-27.72C454.23,187.52,478.92,170.3,503.66,165.87Z" transform="translate(0.14)"/><path class="cls-20" d="M463,160.48c15.09-7.09,35.4-10.75,56.89-14.63,3.43-.62,6.9-1.24,10.38-1.89a286.51,286.51,0,0,0,4.22-56.12c-13.43,48.43-77.77,61.94-102.73,84.89-13.24,12.16-18.07,33-19.69,49.83C421.94,199.46,438.25,172.1,463,160.48Z" transform="translate(0.14)"/><path class="cls-21" d="M504.77,172.08a82.33,82.33,0,0,0-27.09,10.46,57.08,57.08,0,0,0,11.92-3.48c10.78-4.62,23.49-7,37.78-7a159.53,159.53,0,0,1,44.23,6.62,9.55,9.55,0,0,1,6.83,8.95V232c25.85-9,42.33-16.51,42.33-16.51-14.71,8.41-28.84,15.65-42.33,21.9v45.16a9.36,9.36,0,0,1-5,8.16,10.82,10.82,0,0,1-5.2,1.31,11.09,11.09,0,0,1-3.4-.53,137.45,137.45,0,0,0-37.44-5.56c-11.28,0-21.08,1.76-29.14,5.21-10.79,4.63-24.86,7-41.83,7-5.86,0-11.64-.27-17.13-.7,158.62,71.44,287.11-153,287.11-153C663.85,200.79,560.71,162.07,504.77,172.08Z" transform="translate(0.14)"/><path class="cls-22" d="M569.67,184.72a152.57,152.57,0,0,0-42.29-6.31c-13.43,0-25.3,2.17-35.29,6.46-8.85,3.79-20.85,5.72-35.68,5.72-20.76,0-41.22-3.84-48.52-5.36V286.61c8.89,1.79,28.33,5.15,48.52,5.15,16.12,0,29.35-2.18,39.34-6.46,8.85-3.8,19.49-5.72,31.63-5.72a145.18,145.18,0,0,1,39.39,5.86,4.7,4.7,0,0,0,3.64-.32,3,3,0,0,0,1.72-2.61V187.66A3.27,3.27,0,0,0,569.67,184.72Z" transform="translate(0.14)"/><path class="cls-23" d="M436.64,210.85a73.34,73.34,0,0,1,13.06-1.07c6.65,0,10.82.9,14.17,3.23a10.63,10.63,0,0,1,5,9.29c0,4.62-2.92,8.81-8.32,10.77v.19c5.19,1.31,10.12,5.42,10.12,12.37A13.09,13.09,0,0,1,466,255.86c-3.54,3.09-9.34,4.62-18.32,4.62a86.87,86.87,0,0,1-11-.64Zm8.64,19.79h4.85c6.38,0,10-3.06,10-7.37,0-4.84-3.67-7-9.52-7a25,25,0,0,0-5.29.41Zm0,23a28.27,28.27,0,0,0,4.91.27c5.95,0,11.33-2.23,11.33-8.54,0-5.94-5.22-8.38-11.58-8.39h-4.66Z" transform="translate(0.14)"/><path class="cls-23" d="M510.8,258.51c-2.19,1.09-6.93,2.27-13,2.27-15.54,0-25.31-9.77-25.31-25.13,0-16.27,11.31-26.26,26.58-26.26,6,0,10.21,1.23,12,2.2l-1.92,7a23.65,23.65,0,0,0-9.76-2c-10.39,0-17.77,6.51-17.77,18.66,0,11.16,6.5,18.24,17.62,18.24a26.4,26.4,0,0,0,10-1.84Z" transform="translate(0.14)"/><path class="cls-23" d="M514.86,210.17h28.52v7.17H523.57v14.17H542v7.11H523.57V260h-8.71Z" transform="translate(0.14)"/></svg>