<?xml version="1.0" encoding="utf-8"?>
<!-- Generator: Adobe Illustrator 24.1.1, SVG Export Plug-In . SVG Version: 6.00 Build 0)  -->
<svg version="1.1" id="Layer_1" xmlns="http://www.w3.org/2000/svg" xmlns:xlink="http://www.w3.org/1999/xlink" x="0px" y="0px"
	 viewBox="0 0 768 768" style="enable-background:new 0 0 768 768;" xml:space="preserve">
<style type="text/css">
	.st0{fill:url(#SVGID_1_);}
	.st1{fill:url(#SVGID_2_);}
	.st2{fill:url(#SVGID_3_);}
	.st3{fill:url(#SVGID_4_);}
	.st4{fill:url(#SVGID_5_);}
	.st5{fill:url(#SVGID_6_);}
	.st6{fill:url(#SVGID_7_);}
	.st7{fill:url(#SVGID_8_);}
	.st8{fill:url(#SVGID_9_);}
	.st9{fill:url(#SVGID_10_);}
	.st10{fill:url(#SVGID_11_);}
	.st11{fill:url(#SVGID_12_);}
	.st12{fill:url(#SVGID_13_);}
	.st13{fill:url(#SVGID_14_);}
	.st14{fill:url(#SVGID_15_);}
	.st15{fill:url(#SVGID_16_);}
	.st16{fill:url(#SVGID_17_);}
	.st17{fill:url(#SVGID_18_);}
	.st18{fill:url(#SVGID_19_);}
</style>
<g>
	<linearGradient id="SVGID_1_" gradientUnits="userSpaceOnUse" x1="453.8875" y1="42.5515" x2="478.9384" y2="747.5554">
		<stop  offset="0" style="stop-color:#E6E6E6"/>
		<stop  offset="1" style="stop-color:#B3B3B3"/>
	</linearGradient>
	<path class="st0" d="M461.35,314.92c-12.71,1.32-31.12,4.82-42.51,28.49c0,0,17.53,20.16,55.67,0c0,0,17.97-5.26,17.97,4.38
		c0,13.73-39.92,21.16-85.01,29.64l0.72,0.16c17.08,3.81,34.31,8.3,48.98,14.16c36.56-9.37,65.99-21.43,65.99-40.02
		C523.15,316.67,479.32,312.72,461.35,314.92z"/>
	<linearGradient id="SVGID_2_" gradientUnits="userSpaceOnUse" x1="309.5269" y1="47.681" x2="334.5778" y2="752.6849">
		<stop  offset="0" style="stop-color:#E6E6E6"/>
		<stop  offset="1" style="stop-color:#B3B3B3"/>
	</linearGradient>
	<path class="st1" d="M364.88,457.53l-0.05-1.96c-26.19-7.45-46.81-13.83-46.81-22.31c0-8.84,19.14-15.3,45.73-21.42l-0.64-25.57
		c-43.63,9.69-81.47,22.64-81.47,45.67c0,18.11,21.71,31.22,45.49,40.38C338.59,466.59,351.61,461.79,364.88,457.53z"/>
	<linearGradient id="SVGID_3_" gradientUnits="userSpaceOnUse" x1="381.6879" y1="45.1169" x2="406.7388" y2="750.1208">
		<stop  offset="0" style="stop-color:#E6E6E6"/>
		<stop  offset="1" style="stop-color:#B3B3B3"/>
	</linearGradient>
	<path class="st2" d="M367.31,163.8l6.72,290.89c7.23-2.19,14.44-4.24,21.41-6.22l6.56-284.68c11.01-5.4,19.35-15.83,21.55-28.85
		c3.63-21.48-10.84-41.84-32.32-45.47c-21.48-3.63-41.84,10.84-45.47,32.32C342.77,139.44,352.01,156.32,367.31,163.8z"/>
	<linearGradient id="SVGID_4_" gradientUnits="userSpaceOnUse" x1="362.9719" y1="45.782" x2="388.0228" y2="750.7858">
		<stop  offset="0" style="stop-color:#E6E6E6"/>
		<stop  offset="1" style="stop-color:#B3B3B3"/>
	</linearGradient>
	<path class="st3" d="M380.04,710.97h9.21l1.43-70.66c-4.15,1.09-8.19,2.17-11.98,3.3L380.04,710.97z"/>
	<linearGradient id="SVGID_5_" gradientUnits="userSpaceOnUse" x1="368.0285" y1="45.6023" x2="393.0794" y2="750.6061">
		<stop  offset="0" style="stop-color:#E6E6E6"/>
		<stop  offset="1" style="stop-color:#B3B3B3"/>
	</linearGradient>
	<path class="st4" d="M391.58,604.06l2.67-108c-2.73,0.68-5.06,1.27-6.61,1.71l-0.12,0.04c-4.55,1.25-8.66,2.48-12.36,3.66
		l2.64,106.88c2.64-0.83,5.28-1.65,7.89-2.46C387.55,605.33,389.53,604.71,391.58,604.06z"/>
	<linearGradient id="SVGID_6_" gradientUnits="userSpaceOnUse" x1="399.6407" y1="44.479" x2="424.6917" y2="749.4829">
		<stop  offset="0" style="stop-color:#E6E6E6"/>
		<stop  offset="1" style="stop-color:#B3B3B3"/>
	</linearGradient>
	<path class="st5" d="M423.86,630.94c-7.08,2.41-14.52,4.47-21.88,6.41c12.51,4.51,21.23,10.04,21.23,18.57
		c0,12.71-15.78,24.11-15.78,24.11s32.44-14.02,32.44-29.81C439.88,642.45,433.45,636.23,423.86,630.94z"/>
	<linearGradient id="SVGID_7_" gradientUnits="userSpaceOnUse" x1="321.6686" y1="47.2496" x2="346.7195" y2="752.2535">
		<stop  offset="0" style="stop-color:#E6E6E6"/>
		<stop  offset="1" style="stop-color:#B3B3B3"/>
	</linearGradient>
	<path class="st6" d="M368.68,611.32l-0.01-0.29c-16.2-5.28-28.74-10.52-28.74-17.35c0-5.83,11.59-10.77,27.92-15.97l-0.02-0.58
		l-2.92-0.88c-10.93-3.32-22.13-6.94-32.48-11.15c-11.3,6.57-18.8,14.63-18.8,25.08c0,15.17,13.69,24.05,31.38,30.52
		C352.15,617.2,360.27,614.15,368.68,611.32z"/>
	<linearGradient id="SVGID_8_" gradientUnits="userSpaceOnUse" x1="376.9903" y1="45.2838" x2="402.0412" y2="750.2877">
		<stop  offset="0" style="stop-color:#E6E6E6"/>
		<stop  offset="1" style="stop-color:#B3B3B3"/>
	</linearGradient>
	<path class="st7" d="M487.65,432.38c0.01-23.02-37.84-36.06-81.47-45.8l-0.63,25.37c26.35,6.09,45.28,12.53,45.28,21.32
		c0,1.32-0.44,2.63-1.32,3.94h0.08c-16.93,20.3-152.6,30.19-152.6,83.28c0,1.32,0,2.63,0.44,3.51h35.06
		c-0.44-0.87-0.44-1.75-0.44-2.63c0-17.1,35.51-27.61,53.04-32.44c16.66-4.82,95.99-19.72,102.56-52.59l-0.52,0.01
		C487.64,434.88,487.65,433.48,487.65,432.38z"/>
	<linearGradient id="SVGID_9_" gradientUnits="userSpaceOnUse" x1="314.9462" y1="47.4885" x2="339.9971" y2="752.4923">
		<stop  offset="0" style="stop-color:#E6E6E6"/>
		<stop  offset="1" style="stop-color:#B3B3B3"/>
	</linearGradient>
	<path class="st8" d="M366.96,541.51c-17.71-5.15-31.76-10.23-34.46-17.08h-35.06c3.6,20.47,37.55,33.08,70.17,43.01L366.96,541.51z
		"/>
	<linearGradient id="SVGID_10_" gradientUnits="userSpaceOnUse" x1="291.8476" y1="48.3092" x2="316.8985" y2="753.3131">
		<stop  offset="0" style="stop-color:#E6E6E6"/>
		<stop  offset="1" style="stop-color:#B3B3B3"/>
	</linearGradient>
	<path class="st9" d="M360.48,377.43c-44.54-8.41-83.66-15.8-83.66-29.21c0-9.64,17.97-4.38,17.97-4.38c38.13,20.16,55.67,0,55.67,0
		c-11.83-24.11-29.81-27.17-42.95-28.93c-17.97-2.19-61.8,1.75-61.8,36.82c0,18.54,29.27,30.59,65.71,39.94
		C326.05,385.76,343.32,381.26,360.48,377.43z"/>
	<linearGradient id="SVGID_11_" gradientUnits="userSpaceOnUse" x1="372.3283" y1="45.4495" x2="397.3792" y2="750.4534">
		<stop  offset="0" style="stop-color:#E6E6E6"/>
		<stop  offset="1" style="stop-color:#B3B3B3"/>
	</linearGradient>
	<path class="st10" d="M436.76,565.37c-10.31,4.15-21.46,7.74-32.4,11.06l-2.91,0.88l-0.01,0.25c15.88,5.01,27.4,9.76,28.35,15.25
		h-0.43c0,0.44,0,0.44,0,0.87c0,18.85-99.94,25.86-99.94,56.54c0,15.78,32.44,29.81,32.44,29.81s-15.78-10.96-15.78-24.11
		c0.43-29.36,105.6-22.79,109.58-63.1h0.44c-0.44-0.87,0-1.75,0-2.19C456.09,580.07,448.36,571.96,436.76,565.37z"/>
	<linearGradient id="SVGID_12_" gradientUnits="userSpaceOnUse" x1="419.446" y1="43.7753" x2="444.4969" y2="748.7791">
		<stop  offset="0" style="stop-color:#E6E6E6"/>
		<stop  offset="1" style="stop-color:#B3B3B3"/>
	</linearGradient>
	<path class="st11" d="M441.6,482.44c-13.47,4.9-27.12,8.55-38.07,11.32l-0.03,0.96c16.55,5.82,34.19,14.6,34.19,26.65
		c0,8.19-15.4,13.87-35.33,19.65l-0.66,26.59c34.68-10.51,71.06-23.97,71.06-46.68C472.75,504.5,459.89,492.2,441.6,482.44z"/>
	<linearGradient id="SVGID_13_" gradientUnits="userSpaceOnUse" x1="227.2672" y1="50.604" x2="252.3181" y2="755.6078">
		<stop  offset="0" style="stop-color:#E6E6E6"/>
		<stop  offset="1" style="stop-color:#B3B3B3"/>
	</linearGradient>
	<path class="st12" d="M180.52,141.97c17.07-1.43,33.19-2.77,47.93-2.77c10.2,0,18.81,0.65,26.31,2
		c26.68,4.78,53.31,23.35,79.16,55.21c8.93,11,16.13,21.64,21.3,29.9c-8.15-25.24-26.61-69.31-59.51-84.76
		c-47.16-22.14-147.68-12.33-189.68-77.14c0,0,9.9,37.48,32.09,80.44C152.43,144.32,166.65,143.13,180.52,141.97z"/>
	<linearGradient id="SVGID_14_" gradientUnits="userSpaceOnUse" x1="284.3749" y1="48.5747" x2="309.4258" y2="753.5786">
		<stop  offset="0" style="stop-color:#E6E6E6"/>
		<stop  offset="1" style="stop-color:#B3B3B3"/>
	</linearGradient>
	<path class="st13" d="M237.24,119.61c23.19,4.18,45.09,8.13,61.37,15.77c26.71,12.54,44.31,42.06,54.94,66.97
		c-1.75-18.19-6.96-40.63-21.24-53.75c-26.93-24.75-96.33-39.33-110.83-91.57c0,0-1.25,27.14,4.56,60.54
		C229.81,118.27,233.54,118.94,237.24,119.61z"/>
	<linearGradient id="SVGID_15_" gradientUnits="userSpaceOnUse" x1="182.6087" y1="52.1908" x2="207.6597" y2="757.1947">
		<stop  offset="0" style="stop-color:#E6E6E6"/>
		<stop  offset="1" style="stop-color:#B3B3B3"/>
	</linearGradient>
	<path class="st14" d="M351.62,268.08c2.82-1.82,7.76-6.21,8.75-10.08c0,0-91.46,16.91-231.93-63.31c0,0,123.48,56.1,230,50.71
		c0,0-44.53-86.69-104.87-97.49C193.22,137.1,81.97,178.87,14.5,118C14.5,118,168.15,386.42,351.62,268.08z"/>
	<linearGradient id="SVGID_16_" gradientUnits="userSpaceOnUse" x1="592.5861" y1="37.6231" x2="617.637" y2="742.627">
		<stop  offset="0" style="stop-color:#E6E6E6"/>
		<stop  offset="1" style="stop-color:#B3B3B3"/>
	</linearGradient>
	<path class="st15" d="M514.43,155.4c-10.25,1.83-20.03,5.86-29.23,11.27c4.87-0.92,9.17-2.16,12.86-3.75
		c11.63-4.99,25.34-7.52,40.75-7.52c25.3,0,46.81,6.85,47.71,7.14c4.41,1.43,7.37,5.3,7.37,9.65v47.79
		c27.88-9.73,45.66-17.81,45.66-17.81c-15.87,9.06-31.1,16.87-45.66,23.62v48.71c0,3.62-2.07,6.99-5.41,8.81
		c-1.66,0.92-3.62,1.42-5.62,1.42c-1.25,0-2.49-0.19-3.67-0.58c-0.73-0.23-19.14-5.99-40.39-5.99c-12.16,0-22.73,1.89-31.43,5.62
		c-11.64,4.99-26.82,7.52-45.13,7.52c-6.32,0-12.55-0.29-18.48-0.76C614.9,367.61,753.5,125.49,753.5,125.49
		C686.03,186.36,574.78,144.59,514.43,155.4z"/>
	<linearGradient id="SVGID_17_" gradientUnits="userSpaceOnUse" x1="531.1263" y1="39.8069" x2="556.1772" y2="744.8108">
		<stop  offset="0" style="stop-color:#E6E6E6"/>
		<stop  offset="1" style="stop-color:#B3B3B3"/>
	</linearGradient>
	<path class="st16" d="M409.93,169.58v109.36c9.59,1.92,30.55,5.55,52.33,5.55c17.39,0,31.67-2.35,42.44-6.96
		c9.55-4.1,21.02-6.17,34.11-6.17c22.6,0,42.3,6.26,42.49,6.32c1.3,0.42,2.77,0.29,3.93-0.35c1.16-0.63,1.85-1.68,1.85-2.82V172.2
		c0-1.39-1.05-2.65-2.65-3.16c-0.86-0.28-21.34-6.81-45.62-6.81c-14.49,0-27.29,2.34-38.06,6.96c-9.55,4.1-22.5,6.17-38.49,6.17
		c-0.26,0-0.52,0-0.78,0c17.09-14.62,34.41-23.56,51.75-26.66c7.51-1.34,16.11-2,26.31-2c14.75,0,30.87,1.35,47.93,2.77
		c13.87,1.16,28.09,2.34,42.39,2.88c22.19-42.96,32.09-80.44,32.09-80.44c-42,64.81-142.52,54.99-189.68,77.14
		c-11.75,5.52-21.65,14.7-29.91,25.36c-2.7-0.25-5.33-0.52-7.85-0.83c9.31-12.83,20.83-24.11,34.86-30.7
		c16.28-7.64,38.18-11.59,61.37-15.77c3.7-0.67,7.43-1.34,11.19-2.04c5.81-33.4,4.56-60.54,4.56-60.54
		c-14.5,52.25-83.89,66.82-110.83,91.57c-4.84,4.45-8.64,9.98-11.62,16.04C417.84,171.17,412.88,170.2,409.93,169.58z
		 M525.32,196.48h30.77v7.73h-21.37v15.29h19.85v7.67h-19.85v23.06h-9.4V196.48z M508.32,195.64c6.49,0,11.02,1.33,12.98,2.37
		l-2.07,7.5c-2.52-1.15-6.12-2.12-10.53-2.12c-11.21,0-19.16,7.03-19.16,20.13c0,12.04,7.01,19.68,19,19.68
		c4.02,0,8.19-0.8,10.81-1.99l1.59,7.41c-2.35,1.18-7.47,2.45-13.99,2.45c-16.77,0-27.3-10.54-27.3-27.1
		C479.64,206.42,491.84,195.64,508.32,195.64z M470.31,199.55c3.24,2.06,5.39,5.47,5.39,10.02c0,4.98-3.14,9.5-8.97,11.61v0.21
		c5.59,1.41,10.91,5.84,10.91,13.34c0,4.75-2.03,8.43-5.06,11.04c-3.81,3.33-10.07,4.98-19.76,4.98c-5.36,0-9.37-0.36-11.88-0.69
		v-52.84c3.13-0.64,8.68-1.16,14.08-1.16C462.2,196.06,466.7,197.03,470.31,199.55z"/>
	<linearGradient id="SVGID_18_" gradientUnits="userSpaceOnUse" x1="452.1405" y1="42.6135" x2="477.1914" y2="747.6174">
		<stop  offset="0" style="stop-color:#E6E6E6"/>
		<stop  offset="1" style="stop-color:#B3B3B3"/>
	</linearGradient>
	<path class="st17" d="M450.26,218.57h5.23c6.88,0,10.74-3.31,10.74-7.95c0-5.23-3.96-7.58-10.27-7.58c-2.96,0-4.63,0.21-5.7,0.44
		V218.57z"/>
	<linearGradient id="SVGID_19_" gradientUnits="userSpaceOnUse" x1="452.0457" y1="42.6169" x2="477.0966" y2="747.6208">
		<stop  offset="0" style="stop-color:#E6E6E6"/>
		<stop  offset="1" style="stop-color:#B3B3B3"/>
	</linearGradient>
	<path class="st18" d="M455.28,225.4h-5.02v17.98c1.3,0.24,3,0.29,5.29,0.29c6.42,0,12.22-2.4,12.22-9.21
		C467.77,228.05,462.15,225.41,455.28,225.4z"/>
</g>
</svg>
