<?xml version="1.0" encoding="utf-8"?>
<!-- Generator: Adobe Illustrator 24.1.1, SVG Export Plug-In . SVG Version: 6.00 Build 0)  -->
<svg version="1.1" id="Layer_1" xmlns="http://www.w3.org/2000/svg" xmlns:xlink="http://www.w3.org/1999/xlink" x="0px" y="0px"
	 viewBox="0 0 768 768" style="enable-background:new 0 0 768 768;" xml:space="preserve">
<style type="text/css">
	.st0{fill:#FFFFFF;}
</style>
<path class="st0" d="M357.34,183.11c0,0-42.84-16.66-67.12-49.98c-23.8-33.32-98.06,2.38-120.91,18.09s-82.35,38.08-123.29,11.9
	c0,0,14.28,51.41,87.11,45.22c0,0-1.43,32.37,51.41,26.18c0,0,1.43,23.8,44.27,19.04c0,0,6.19,21.42,52.36,10.95
	c0,0,2.38,21.42,75.21,9.52v-90.92C356.39,183.11,357.34,183.11,357.34,183.11z"/>
<path class="st0" d="M410.66,183.11c0,0,42.84-16.66,67.12-49.98c23.8-33.32,98.06,2.38,120.91,18.09s82.35,38.08,123.29,11.9
	c0,0-14.28,51.41-87.11,45.22c0,0,1.43,32.37-51.41,26.18c0,0-1.43,23.8-44.27,19.04c0,0-6.19,21.42-52.36,10.95
	c0,0-2.38,21.42-75.21,9.52v-90.92C411.61,183.11,410.66,183.11,410.66,183.11z"/>
<ellipse transform="matrix(0.1666 -0.986 0.986 0.1666 214.1065 468.1633)" class="st0" cx="384" cy="107.42" rx="42.84" ry="42.84"/>
<path class="st0" d="M461.12,589.64h-28.56c0,0.48,0,0.48,0,0.95c0,20.47-108.54,28.09-108.54,61.41
	c0,17.14,35.23,32.37,35.23,32.37s-17.14-11.9-17.14-26.18C342.58,626.3,456.83,633.44,461.12,589.64z"/>
<path class="st0" d="M454.93,420.18c-16.66,22.37-166.13,32.85-166.13,90.92c0,1.43,0,2.86,0.48,3.81h38.08
	c-0.48-0.95-0.48-1.9-0.48-2.86c0-18.57,38.56-29.99,57.6-35.23c18.09-5.24,104.25-21.42,111.39-57.12L454.93,420.18L454.93,420.18z
	"/>
<path class="st0" d="M467.3,287.84c-13.8,1.43-33.8,5.24-46.17,30.94c0,0,19.04,21.9,60.46,0c0,0,19.52-5.71,19.52,4.76
	c0,14.91-43.35,22.98-92.32,32.19l0.78,0.17c18.55,4.14,37.26,9.01,53.19,15.38c39.71-10.18,71.67-23.27,71.67-43.46
	C534.42,289.74,486.82,285.46,467.3,287.84z"/>
<path class="st0" d="M407.38,365.67l-0.68,27.55c28.62,6.61,49.18,13.61,49.18,23.15c0,1.43-0.48,2.86-1.43,4.28h40.46
	c0.95-1.9,0.95-3.81,0.95-5.24C495.87,390.41,454.76,376.25,407.38,365.67z"/>
<path class="st0" d="M364.79,533.93c-19.23-5.59-34.49-11.11-37.43-18.55h-38.08c3.91,22.23,40.78,35.93,76.21,46.71L364.79,533.93z
	"/>
<path class="st0" d="M395.71,432.88l7.33-295.94h-38.08l7.5,302.7C380.31,437.26,388.14,435.03,395.71,432.88z"/>
<path class="st0" d="M357.75,355.73c-48.37-9.13-90.86-17.16-90.86-31.72c0-10.47,19.52-4.76,19.52-4.76c41.41,21.9,60.46,0,60.46,0
	c-12.85-26.18-32.37-29.51-46.65-31.42c-19.52-2.38-67.12,1.9-67.12,39.99c0,20.14,31.79,33.22,71.36,43.38
	C320.36,364.78,339.12,359.89,357.75,355.73z"/>
<path class="st0" d="M321.53,458.79c12.45-6.22,26.59-11.44,41-16.06l-0.05-2.13c-28.44-8.09-50.84-15.02-50.84-24.23
	c0-9.6,20.79-16.62,49.66-23.26l-0.69-27.77c-47.38,10.52-88.48,24.59-88.48,49.6C272.13,434.61,295.71,448.85,321.53,458.79z"/>
<path class="st0" d="M454.93,420.18c-16.66,22.37-166.13,32.85-166.13,90.92c0,1.43,0,2.86,0.48,3.81h38.08
	c-0.48-0.95-0.48-1.9-0.48-2.86c0-18.57,38.56-29.99,57.6-35.23c18.09-5.24,104.25-21.42,111.39-57.12L454.93,420.18L454.93,420.18z
	"/>
<g>
	<path class="st0" d="M377.53,644.82l1.46,59.08h10l1.55-62.66C386.03,642.42,381.65,643.6,377.53,644.82z"/>
	<path class="st0" d="M385.14,603.86c2.01-0.62,4.16-1.29,6.39-2l2.9-117.29c-2.97,0.74-5.49,1.38-7.18,1.86l-0.13,0.04
		c-4.94,1.36-9.4,2.69-13.42,3.98l2.87,116.08C379.44,605.63,382.3,604.74,385.14,603.86z"/>
</g>
<path class="st0" d="M426.59,631.06c-7.69,2.62-15.77,4.86-23.76,6.96c13.59,4.9,23.06,10.9,23.06,20.17
	c0,13.8-17.14,26.18-17.14,26.18s35.23-15.23,35.23-32.37C443.98,643.56,437,636.8,426.59,631.06z"/>
<path class="st0" d="M340.96,619.95c7.74-3.82,16.56-7.13,25.7-10.2l-0.01-0.31c-17.59-5.73-31.21-11.42-31.21-18.84
	c0-6.33,12.59-11.7,30.32-17.34l-0.02-0.63l-3.17-0.96c-11.87-3.61-24.03-7.54-35.27-12.11c-12.27,7.13-20.42,15.89-20.42,27.24
	C306.88,603.27,321.75,612.92,340.96,619.95z"/>
<path class="st0" d="M461.12,589.64h-28.56c0,0.48,0,0.48,0,0.95c0,20.47-108.54,28.09-108.54,61.41
	c0,17.14,35.23,32.37,35.23,32.37s-17.14-11.9-17.14-26.18C342.58,626.3,456.83,633.44,461.12,589.64z"/>
<path class="st0" d="M440.6,559.84c-11.2,4.51-23.31,8.41-35.19,12.01l-3.16,0.96l-0.01,0.27c17.27,5.45,29.79,10.61,30.79,16.58
	h28.56c-0.48-0.95,0-1.9,0-2.38C461.59,575.81,453.19,567,440.6,559.84z"/>
<path class="st0" d="M445.85,469.78c-14.63,5.32-29.45,9.29-41.35,12.29l-0.03,1.04c17.97,6.32,37.13,15.86,37.13,28.94
	c0,8.89-16.72,15.06-38.37,21.34l-0.72,28.88c37.66-11.41,77.17-26.03,77.17-50.7C479.68,493.74,465.72,480.38,445.85,469.78z"/>
</svg>
